<svg width="146" height="168" viewBox="0 0 146 168" fill="none" xmlns="http://www.w3.org/2000/svg">
<g clip-path="url(#clip0_1_140)">
<path fill-rule="evenodd" clip-rule="evenodd" d="M92.6538 117.6C94.2065 117.6 95.4615 118.854 95.4615 120.4C95.4615 121.946 94.2065 123.2 92.6538 123.2H53.3462C51.7963 123.2 50.5385 121.946 50.5385 120.4C50.5385 118.854 51.7963 117.6 53.3462 117.6H92.6538ZM109.5 106.4H53.3462C51.7963 106.4 50.5385 105.146 50.5385 103.6C50.5385 102.054 51.7963 100.8 53.3462 100.8H109.5C111.053 100.8 112.308 102.054 112.308 103.6C112.308 105.146 111.053 106.4 109.5 106.4ZM115.115 89.6H53.3462C51.7963 89.6 50.5385 88.3456 50.5385 86.8C50.5385 85.2544 51.7963 84 53.3462 84H115.115C116.668 84 117.923 85.2544 117.923 86.8C117.923 88.3456 116.668 89.6 115.115 89.6ZM50.5385 70C50.5385 68.4544 51.7963 67.2 53.3462 67.2H103.885C105.437 67.2 106.692 68.4544 106.692 70C106.692 71.5456 105.437 72.8 103.885 72.8H53.3462C51.7963 72.8 50.5385 71.5456 50.5385 70ZM50.5385 53.2C50.5385 51.6544 51.7963 50.4 53.3462 50.4H109.5C111.053 50.4 112.308 51.6544 112.308 53.2C112.308 54.7456 111.053 56 109.5 56H53.3462C51.7963 56 50.5385 54.7456 50.5385 53.2ZM39.3077 120.4C39.3077 121.946 38.0498 123.2 36.5 123.2H30.8846C29.3348 123.2 28.0769 121.946 28.0769 120.4C28.0769 118.854 29.3348 117.6 30.8846 117.6H36.5C38.0498 117.6 39.3077 118.854 39.3077 120.4ZM39.3077 103.6C39.3077 105.146 38.0498 106.4 36.5 106.4H30.8846C29.3348 106.4 28.0769 105.146 28.0769 103.6C28.0769 102.054 29.3348 100.8 30.8846 100.8H36.5C38.0498 100.8 39.3077 102.054 39.3077 103.6ZM39.3077 86.8C39.3077 88.3456 38.0498 89.6 36.5 89.6H30.8846C29.3348 89.6 28.0769 88.3456 28.0769 86.8C28.0769 85.2544 29.3348 84 30.8846 84H36.5C38.0498 84 39.3077 85.2544 39.3077 86.8ZM39.3077 70C39.3077 71.5456 38.0498 72.8 36.5 72.8H30.8846C29.3348 72.8 28.0769 71.5456 28.0769 70C28.0769 68.4544 29.3348 67.2 30.8846 67.2H36.5C38.0498 67.2 39.3077 68.4544 39.3077 70ZM39.3077 53.2C39.3077 54.7456 38.0498 56 36.5 56H30.8846C29.3348 56 28.0769 54.7456 28.0769 53.2C28.0769 51.6544 29.3348 50.4 30.8846 50.4H36.5C38.0498 50.4 39.3077 51.6544 39.3077 53.2ZM39.3077 14C39.3077 12.4544 40.5655 11.2 42.1154 11.2H47.7308C49.2806 11.2 50.5385 12.4544 50.5385 14C50.5385 15.5456 49.2806 16.8 47.7308 16.8H42.1154C40.5655 16.8 39.3077 15.5456 39.3077 14ZM67.3846 14C67.3846 12.4544 68.6425 11.2 70.1923 11.2H75.8077C77.3603 11.2 78.6154 12.4544 78.6154 14C78.6154 15.5456 77.3603 16.8 75.8077 16.8H70.1923C68.6425 16.8 67.3846 15.5456 67.3846 14ZM95.4615 14C95.4615 12.4544 96.7166 11.2 98.2692 11.2H103.885C105.437 11.2 106.692 12.4544 106.692 14C106.692 15.5456 105.437 16.8 103.885 16.8H98.2692C96.7166 16.8 95.4615 15.5456 95.4615 14ZM30.8846 22.4C32.4317 22.4 33.6923 23.6572 33.6923 25.2C33.6923 26.7428 32.4317 28 30.8846 28C29.3376 28 28.0769 26.7428 28.0769 25.2C28.0769 23.6572 29.3376 22.4 30.8846 22.4ZM22.4615 25.2C22.4615 29.8312 26.2407 33.6 30.8846 33.6C35.5285 33.6 39.3077 29.8312 39.3077 25.2C39.3077 21.5544 36.9548 18.4772 33.6923 17.3152V2.8C33.6923 1.2544 32.4345 0 30.8846 0C29.3348 0 28.0769 1.2544 28.0769 2.8V17.3152C24.8144 18.4772 22.4615 21.5544 22.4615 25.2ZM115.115 22.4C116.665 22.4 117.923 23.6572 117.923 25.2C117.923 26.7428 116.665 28 115.115 28C113.566 28 112.308 26.7428 112.308 25.2C112.308 23.6572 113.566 22.4 115.115 22.4ZM106.692 25.2C106.692 29.8312 110.471 33.6 115.115 33.6C119.759 33.6 123.538 29.8312 123.538 25.2C123.538 21.5544 121.183 18.4772 117.923 17.3152V2.8C117.923 1.2544 116.668 0 115.115 0C113.563 0 112.308 1.2544 112.308 2.8V17.3152C109.048 18.4772 106.692 21.5544 106.692 25.2ZM87.0385 22.4C88.5883 22.4 89.8462 23.6572 89.8462 25.2C89.8462 26.7428 88.5883 28 87.0385 28C85.4886 28 84.2308 26.7428 84.2308 25.2C84.2308 23.6572 85.4886 22.4 87.0385 22.4ZM78.6154 25.2C78.6154 29.8312 82.3945 33.6 87.0385 33.6C91.6824 33.6 95.4615 29.8312 95.4615 25.2C95.4615 21.5544 93.1059 18.4772 89.8462 17.3152V2.8C89.8462 1.2544 88.5911 0 87.0385 0C85.4858 0 84.2308 1.2544 84.2308 2.8V17.3152C80.971 18.4772 78.6154 21.5544 78.6154 25.2ZM58.9615 22.4C60.5086 22.4 61.7692 23.6572 61.7692 25.2C61.7692 26.7428 60.5086 28 58.9615 28C57.4145 28 56.1538 26.7428 56.1538 25.2C56.1538 23.6572 57.4145 22.4 58.9615 22.4ZM50.5385 25.2C50.5385 29.8312 54.3176 33.6 58.9615 33.6C63.6055 33.6 67.3846 29.8312 67.3846 25.2C67.3846 21.5544 65.0318 18.4772 61.7692 17.3152V2.8C61.7692 1.2544 60.5114 0 58.9615 0C57.4117 0 56.1538 1.2544 56.1538 2.8V17.3152C52.8913 18.4772 50.5385 21.5544 50.5385 25.2ZM131.962 162.4H14.0385C10.8882 162.4 7.62008 159.838 6.26958 156.8H139.73C138.38 159.838 135.112 162.4 131.962 162.4ZM5.61538 151.2H140.385V145.6H5.61538V151.2ZM131.962 11.2H126.346C124.794 11.2 123.538 12.4544 123.538 14C123.538 15.5456 124.794 16.8 126.346 16.8H131.962C136.055 16.8 140.385 21.1176 140.385 25.2V140H5.61538V25.2C5.61538 21.1176 9.94485 16.8 14.0385 16.8H19.6538C21.2037 16.8 22.4615 15.5456 22.4615 14C22.4615 12.4544 21.2037 11.2 19.6538 11.2H14.0385C6.82269 11.2 0 18.004 0 25.2V154C0 161.196 6.82269 168 14.0385 168H131.962C139.177 168 146 161.196 146 154V25.2C146 18.004 139.177 11.2 131.962 11.2Z" fill="black"/>
</g>
<defs>
<clipPath id="clip0_1_140">
<rect width="146" height="168" fill="white"/>
</clipPath>
</defs>
</svg>
