<svg width="76" height="88" viewBox="0 0 76 88" fill="none" xmlns="http://www.w3.org/2000/svg">
<g clip-path="url(#clip0_1_148)">
<path fill-rule="evenodd" clip-rule="evenodd" d="M48.2308 61.6C49.039 61.6 49.6923 62.2571 49.6923 63.0667C49.6923 63.8763 49.039 64.5333 48.2308 64.5333H27.7692C26.9625 64.5333 26.3077 63.8763 26.3077 63.0667C26.3077 62.2571 26.9625 61.6 27.7692 61.6H48.2308ZM57 55.7333H27.7692C26.9625 55.7333 26.3077 55.0763 26.3077 54.2667C26.3077 53.4571 26.9625 52.8 27.7692 52.8H57C57.8082 52.8 58.4615 53.4571 58.4615 54.2667C58.4615 55.0763 57.8082 55.7333 57 55.7333ZM59.9231 46.9333H27.7692C26.9625 46.9333 26.3077 46.2763 26.3077 45.4667C26.3077 44.6571 26.9625 44 27.7692 44H59.9231C60.7313 44 61.3846 44.6571 61.3846 45.4667C61.3846 46.2763 60.7313 46.9333 59.9231 46.9333ZM26.3077 36.6667C26.3077 35.8571 26.9625 35.2 27.7692 35.2H54.0769C54.8852 35.2 55.5385 35.8571 55.5385 36.6667C55.5385 37.4763 54.8852 38.1333 54.0769 38.1333H27.7692C26.9625 38.1333 26.3077 37.4763 26.3077 36.6667ZM26.3077 27.8667C26.3077 27.0571 26.9625 26.4 27.7692 26.4H57C57.8082 26.4 58.4615 27.0571 58.4615 27.8667C58.4615 28.6763 57.8082 29.3333 57 29.3333H27.7692C26.9625 29.3333 26.3077 28.6763 26.3077 27.8667ZM20.4615 63.0667C20.4615 63.8763 19.8068 64.5333 19 64.5333H16.0769C15.2702 64.5333 14.6154 63.8763 14.6154 63.0667C14.6154 62.2571 15.2702 61.6 16.0769 61.6H19C19.8068 61.6 20.4615 62.2571 20.4615 63.0667ZM20.4615 54.2667C20.4615 55.0763 19.8068 55.7333 19 55.7333H16.0769C15.2702 55.7333 14.6154 55.0763 14.6154 54.2667C14.6154 53.4571 15.2702 52.8 16.0769 52.8H19C19.8068 52.8 20.4615 53.4571 20.4615 54.2667ZM20.4615 45.4667C20.4615 46.2763 19.8068 46.9333 19 46.9333H16.0769C15.2702 46.9333 14.6154 46.2763 14.6154 45.4667C14.6154 44.6571 15.2702 44 16.0769 44H19C19.8068 44 20.4615 44.6571 20.4615 45.4667ZM20.4615 36.6667C20.4615 37.4763 19.8068 38.1333 19 38.1333H16.0769C15.2702 38.1333 14.6154 37.4763 14.6154 36.6667C14.6154 35.8571 15.2702 35.2 16.0769 35.2H19C19.8068 35.2 20.4615 35.8571 20.4615 36.6667ZM20.4615 27.8667C20.4615 28.6763 19.8068 29.3333 19 29.3333H16.0769C15.2702 29.3333 14.6154 28.6763 14.6154 27.8667C14.6154 27.0571 15.2702 26.4 16.0769 26.4H19C19.8068 26.4 20.4615 27.0571 20.4615 27.8667ZM20.4615 7.33333C20.4615 6.52373 21.1163 5.86667 21.9231 5.86667H24.8462C25.6529 5.86667 26.3077 6.52373 26.3077 7.33333C26.3077 8.14293 25.6529 8.8 24.8462 8.8H21.9231C21.1163 8.8 20.4615 8.14293 20.4615 7.33333ZM35.0769 7.33333C35.0769 6.52373 35.7317 5.86667 36.5385 5.86667H39.4615C40.2698 5.86667 40.9231 6.52373 40.9231 7.33333C40.9231 8.14293 40.2698 8.8 39.4615 8.8H36.5385C35.7317 8.8 35.0769 8.14293 35.0769 7.33333ZM49.6923 7.33333C49.6923 6.52373 50.3456 5.86667 51.1538 5.86667H54.0769C54.8852 5.86667 55.5385 6.52373 55.5385 7.33333C55.5385 8.14293 54.8852 8.8 54.0769 8.8H51.1538C50.3456 8.8 49.6923 8.14293 49.6923 7.33333ZM16.0769 11.7333C16.8822 11.7333 17.5385 12.3919 17.5385 13.2C17.5385 14.0081 16.8822 14.6667 16.0769 14.6667C15.2716 14.6667 14.6154 14.0081 14.6154 13.2C14.6154 12.3919 15.2716 11.7333 16.0769 11.7333ZM11.6923 13.2C11.6923 15.6259 13.6595 17.6 16.0769 17.6C18.4943 17.6 20.4615 15.6259 20.4615 13.2C20.4615 11.2904 19.2368 9.67853 17.5385 9.06987V1.46667C17.5385 0.657067 16.8837 0 16.0769 0C15.2702 0 14.6154 0.657067 14.6154 1.46667V9.06987C12.9171 9.67853 11.6923 11.2904 11.6923 13.2ZM59.9231 11.7333C60.7298 11.7333 61.3846 12.3919 61.3846 13.2C61.3846 14.0081 60.7298 14.6667 59.9231 14.6667C59.1163 14.6667 58.4615 14.0081 58.4615 13.2C58.4615 12.3919 59.1163 11.7333 59.9231 11.7333ZM55.5385 13.2C55.5385 15.6259 57.5057 17.6 59.9231 17.6C62.3405 17.6 64.3077 15.6259 64.3077 13.2C64.3077 11.2904 63.0815 9.67853 61.3846 9.06987V1.46667C61.3846 0.657067 60.7313 0 59.9231 0C59.1148 0 58.4615 0.657067 58.4615 1.46667V9.06987C56.7647 9.67853 55.5385 11.2904 55.5385 13.2ZM45.3077 11.7333C46.1145 11.7333 46.7692 12.3919 46.7692 13.2C46.7692 14.0081 46.1145 14.6667 45.3077 14.6667C44.5009 14.6667 43.8462 14.0081 43.8462 13.2C43.8462 12.3919 44.5009 11.7333 45.3077 11.7333ZM40.9231 13.2C40.9231 15.6259 42.8903 17.6 45.3077 17.6C47.7251 17.6 49.6923 15.6259 49.6923 13.2C49.6923 11.2904 48.4661 9.67853 46.7692 9.06987V1.46667C46.7692 0.657067 46.1159 0 45.3077 0C44.4995 0 43.8462 0.657067 43.8462 1.46667V9.06987C42.1493 9.67853 40.9231 11.2904 40.9231 13.2ZM30.6923 11.7333C31.4976 11.7333 32.1538 12.3919 32.1538 13.2C32.1538 14.0081 31.4976 14.6667 30.6923 14.6667C29.887 14.6667 29.2308 14.0081 29.2308 13.2C29.2308 12.3919 29.887 11.7333 30.6923 11.7333ZM26.3077 13.2C26.3077 15.6259 28.2749 17.6 30.6923 17.6C33.1097 17.6 35.0769 15.6259 35.0769 13.2C35.0769 11.2904 33.8522 9.67853 32.1538 9.06987V1.46667C32.1538 0.657067 31.4991 0 30.6923 0C29.8855 0 29.2308 0.657067 29.2308 1.46667V9.06987C27.5325 9.67853 26.3077 11.2904 26.3077 13.2ZM68.6923 85.0667H7.30769C5.66785 85.0667 3.96661 83.7247 3.26362 82.1333H72.7364C72.0334 83.7247 70.3322 85.0667 68.6923 85.0667ZM2.92308 79.2H73.0769V76.2667H2.92308V79.2ZM68.6923 5.86667H65.7692C64.961 5.86667 64.3077 6.52373 64.3077 7.33333C64.3077 8.14293 64.961 8.8 65.7692 8.8H68.6923C70.8232 8.8 73.0769 11.0616 73.0769 13.2V73.3333H2.92308V13.2C2.92308 11.0616 5.17677 8.8 7.30769 8.8H10.2308C11.0375 8.8 11.6923 8.14293 11.6923 7.33333C11.6923 6.52373 11.0375 5.86667 10.2308 5.86667H7.30769C3.55154 5.86667 0 9.43067 0 13.2V80.6667C0 84.436 3.55154 88 7.30769 88H68.6923C72.4485 88 76 84.436 76 80.6667V13.2C76 9.43067 72.4485 5.86667 68.6923 5.86667Z" fill="black"/>
</g>
<defs>
<clipPath id="clip0_1_148">
<rect width="76" height="88" fill="white"/>
</clipPath>
</defs>
</svg>
